<mxfile host="app.diagrams.net" modified="2024-05-28T10:46:45.584Z" agent="Mozilla/5.0 (Windows NT 10.0; Win64; x64) AppleWebKit/537.36 (KHTML, like Gecko) Chrome/124.0.0.0 Safari/537.36" version="24.4.6" etag="Sat0_-Uakeis3TlcXNkz" type="github">
  <diagram name="Page-1" id="rv5GiJwdkwC02ZmOrcgG">
    <mxGraphModel>
      <root>
        <mxCell id="0" />
        <mxCell id="1" parent="0" />
      </root>
    </mxGraphModel>
  </diagram>
</mxfile>
